<?xml version="1.0" encoding="iso-8859-1"?>
<!-- Generator: Adobe Illustrator 19.1.0, SVG Export Plug-In . SVG Version: 6.00 Build 0)  -->
<svg version="1.1" id="Capa_1" xmlns="http://www.w3.org/2000/svg" xmlns:xlink="http://www.w3.org/1999/xlink" x="0px" y="0px"
	 viewBox="0 0 470.057 470.057" style="enable-background:new 0 0 470.057 470.057;" xml:space="preserve">
<g>
	<path style="fill:#FFD085;" d="M391.48,166.504c12.089,15.126,21.758,31.576,28.905,48.991
		c24.785-30.691,36.874-68.803,34.348-107.936c-19.37,22.126-44.192,38.99-71.931,48.815
		C385.8,159.649,388.699,163.024,391.48,166.504z"/>
	<path style="fill:#FFD085;" d="M78.579,166.502c2.781-3.479,5.678-6.853,8.677-10.128c-27.74-9.825-52.562-26.689-71.932-48.815
		c-2.525,39.133,9.564,77.245,34.349,107.937C56.821,198.079,66.49,181.628,78.579,166.502z"/>
	<path style="fill:#081C1F;" d="M462.419,167.799c8.09-26.183,9.764-53.235,4.973-80.404c-0.526-2.987-2.801-5.363-5.763-6.02
		c-2.961-0.654-6.026,0.535-7.767,3.021c-20.12,28.734-49.444,49.946-82.908,60.081c-23.65-21.844-52.383-37.862-83.429-46.297
		v-4.44c0-3.501-2.422-6.536-5.835-7.313c-30.5-6.942-62.855-6.936-93.318-0.002c-3.414,0.777-5.836,3.812-5.836,7.312l0,4.442
		c-31.046,8.434-59.781,24.453-83.433,46.298C65.64,134.342,36.315,113.13,16.195,84.395c-1.739-2.485-4.809-3.675-7.767-3.021
		c-2.962,0.657-5.236,3.033-5.763,6.02c-4.791,27.169-3.117,54.221,4.973,80.404c7.269,23.522,19.742,45.539,36.186,63.953
		c-5.195,16.72-8.167,34.183-8.815,52.108h-2.644c-4.143,0-7.5,3.358-7.5,7.5v23.074c-8.729,3.096-15,11.432-15,21.21
		s6.271,18.114,15,21.21v24.496c0,4.142,3.357,7.5,7.5,7.5l405.327,0.011c1.989,0,3.896-0.79,5.304-2.197
		c1.406-1.406,2.196-3.314,2.196-5.303v-24.506c8.729-3.096,15-11.432,15-21.21s-6.271-18.114-15-21.21V291.36
		c0-4.142-3.357-7.5-7.5-7.5h-2.644c-0.648-17.926-3.62-35.389-8.815-52.109C442.678,213.337,455.151,191.321,462.419,167.799z
		 M15.325,107.559c19.37,22.126,44.192,38.99,71.932,48.815c-2.998,3.275-5.896,6.649-8.677,10.128
		c-12.089,15.126-21.759,31.578-28.906,48.994C24.888,184.804,12.799,146.692,15.325,107.559z M182.536,113.758l-0.004,117.602
		c0,4.143,3.357,7.5,7.5,7.5c4.142-0.001,7.5-3.358,7.5-7.5l0.005-131.543c24.604-4.803,50.364-4.809,74.989,0.002V283.86h-74.994
		v-22.5c0-4.142-3.357-7.5-7.499-7.5c-4.143,0-7.501,3.358-7.501,7.5v22.5H50.019C53.172,204.236,106.335,136.133,182.536,113.758z
		 M430.193,298.86v21.784v30v23.216l-390.327-0.011v-23.206v-30V298.86H430.193z M287.526,283.86V113.759
		c76.199,22.377,129.36,90.48,132.514,170.101H287.526z M454.733,107.559c2.525,39.133-9.563,77.244-34.348,107.936
		c-7.147-17.415-16.816-33.865-28.905-48.991c-2.781-3.48-5.679-6.855-8.678-10.13C410.541,146.548,435.363,129.684,454.733,107.559
		z"/>
	<path style="fill:#2EAAB6;" d="M182.532,283.86v-22.5c0-4.142,3.357-7.5,7.5-7.5c0.001,0,0.001-15,0.001-15
		c-4.144,0-7.501-3.358-7.501-7.5l0.004-117.602c-76.2,22.375-129.364,90.478-132.517,170.102H182.532z"/>
	<path style="fill:#2EAAB6;" d="M287.526,113.759V283.86H420.04C416.886,204.238,363.724,136.135,287.526,113.759z"/>
	<path style="fill:#8BEEF8;" d="M39.866,298.86v21.784v30v23.206l390.327,0.011v-23.216v-30V298.86H39.866z M104.43,358.144
		c-12.406,0-22.5-10.093-22.5-22.5s10.094-22.5,22.5-22.5s22.5,10.093,22.5,22.5S116.836,358.144,104.43,358.144z M191.496,358.144
		c-12.406,0-22.5-10.093-22.5-22.5s10.094-22.5,22.5-22.5s22.5,10.093,22.5,22.5S203.903,358.144,191.496,358.144z M365.627,313.144
		c12.406,0,22.5,10.093,22.5,22.5s-10.094,22.5-22.5,22.5s-22.5-10.093-22.5-22.5S353.221,313.144,365.627,313.144z
		 M301.062,335.644c0,12.407-10.094,22.5-22.5,22.5s-22.5-10.093-22.5-22.5s10.094-22.5,22.5-22.5S301.062,323.237,301.062,335.644z
		"/>
	<path style="fill:#8BEEF8;" d="M197.532,261.36v22.5h74.994V99.819c-24.625-4.811-50.386-4.805-74.989-0.002l-0.005,131.543
		c0,4.141-3.358,7.499-7.499,7.499l0,15C194.175,253.86,197.532,257.218,197.532,261.36z M235.029,123.996
		c12.406,0,22.5,10.093,22.5,22.5s-10.094,22.5-22.5,22.5s-22.5-10.093-22.5-22.5S222.622,123.996,235.029,123.996z
		 M235.029,211.061c12.406,0,22.5,10.093,22.5,22.5s-10.094,22.5-22.5,22.5s-22.5-10.093-22.5-22.5S222.622,211.061,235.029,211.061
		z"/>
	<path style="fill:#2EAAB6;" d="M104.43,328.144c-4.136,0-7.5,3.364-7.5,7.5s3.364,7.5,7.5,7.5s7.5-3.364,7.5-7.5
		S108.566,328.144,104.43,328.144z"/>
	<path style="fill:#081C1F;" d="M104.43,313.144c-12.406,0-22.5,10.093-22.5,22.5s10.094,22.5,22.5,22.5s22.5-10.093,22.5-22.5
		S116.836,313.144,104.43,313.144z M104.43,343.144c-4.136,0-7.5-3.364-7.5-7.5s3.364-7.5,7.5-7.5s7.5,3.364,7.5,7.5
		S108.566,343.144,104.43,343.144z"/>
	<path style="fill:#2EAAB6;" d="M191.496,328.144c-4.136,0-7.5,3.364-7.5,7.5s3.364,7.5,7.5,7.5s7.5-3.364,7.5-7.5
		S195.632,328.144,191.496,328.144z"/>
	<path style="fill:#081C1F;" d="M191.496,313.144c-12.406,0-22.5,10.093-22.5,22.5s10.094,22.5,22.5,22.5s22.5-10.093,22.5-22.5
		S203.903,313.144,191.496,313.144z M191.496,343.144c-4.136,0-7.5-3.364-7.5-7.5s3.364-7.5,7.5-7.5s7.5,3.364,7.5,7.5
		S195.632,343.144,191.496,343.144z"/>
	<path style="fill:#2EAAB6;" d="M278.562,328.144c-4.136,0-7.5,3.364-7.5,7.5s3.364,7.5,7.5,7.5s7.5-3.364,7.5-7.5
		S282.698,328.144,278.562,328.144z"/>
	<path style="fill:#081C1F;" d="M256.062,335.644c0,12.407,10.094,22.5,22.5,22.5s22.5-10.093,22.5-22.5s-10.094-22.5-22.5-22.5
		S256.062,323.237,256.062,335.644z M278.562,343.144c-4.136,0-7.5-3.364-7.5-7.5s3.364-7.5,7.5-7.5s7.5,3.364,7.5,7.5
		S282.698,343.144,278.562,343.144z"/>
	<path style="fill:#2EAAB6;" d="M365.627,343.144c4.136,0,7.5-3.364,7.5-7.5s-3.364-7.5-7.5-7.5s-7.5,3.364-7.5,7.5
		S361.492,343.144,365.627,343.144z"/>
	<path style="fill:#081C1F;" d="M365.627,358.144c12.406,0,22.5-10.093,22.5-22.5s-10.094-22.5-22.5-22.5s-22.5,10.093-22.5,22.5
		S353.221,358.144,365.627,358.144z M365.627,328.144c4.136,0,7.5,3.364,7.5,7.5s-3.364,7.5-7.5,7.5s-7.5-3.364-7.5-7.5
		S361.492,328.144,365.627,328.144z"/>
	<path style="fill:#2EAAB6;" d="M235.029,153.996c4.136,0,7.5-3.364,7.5-7.5s-3.364-7.5-7.5-7.5s-7.5,3.364-7.5,7.5
		S230.893,153.996,235.029,153.996z"/>
	<path style="fill:#081C1F;" d="M235.029,168.996c12.406,0,22.5-10.093,22.5-22.5s-10.094-22.5-22.5-22.5s-22.5,10.093-22.5,22.5
		S222.622,168.996,235.029,168.996z M235.029,138.996c4.136,0,7.5,3.364,7.5,7.5s-3.364,7.5-7.5,7.5s-7.5-3.364-7.5-7.5
		S230.893,138.996,235.029,138.996z"/>
	<path style="fill:#2EAAB6;" d="M227.529,233.561c0,4.136,3.364,7.5,7.5,7.5s7.5-3.364,7.5-7.5s-3.364-7.5-7.5-7.5
		S227.529,229.425,227.529,233.561z"/>
	<path style="fill:#081C1F;" d="M235.029,256.061c12.406,0,22.5-10.093,22.5-22.5s-10.094-22.5-22.5-22.5s-22.5,10.093-22.5,22.5
		S222.622,256.061,235.029,256.061z M242.529,233.561c0,4.136-3.364,7.5-7.5,7.5s-7.5-3.364-7.5-7.5s3.364-7.5,7.5-7.5
		S242.529,229.425,242.529,233.561z"/>
</g>
<g>
</g>
<g>
</g>
<g>
</g>
<g>
</g>
<g>
</g>
<g>
</g>
<g>
</g>
<g>
</g>
<g>
</g>
<g>
</g>
<g>
</g>
<g>
</g>
<g>
</g>
<g>
</g>
<g>
</g>
</svg>
